name C:\Users\u0101727\Documents\MyRepositories\upper-imu-dc\OpenSim\subject0\MA\MA_Splines\angle_in_n3_dof6_0.mot
datacolumns 7
datarows 47
range 1.83000000 2.29000000
endheader 
time	clav_prot	clav_elev	scapula_abduction	scapula_elevation	scapula_upward_rot	scapula_winging	
          1.83000000	        -16.90593547	         -7.65248351	         11.28790885	         -7.82036939	         85.49388449	        -12.40251587	
          1.84000000	        -44.34577705	          4.60560848	         11.28790885	         -7.82036939	         85.49388449	        -12.40251587	
          1.85000000	        -30.62585626	          4.60560848	         11.28790885	         -7.82036939	         85.49388449	        -12.40251587	
          1.86000000	        -16.90593547	          4.60560848	         11.28790885	         -7.82036939	         85.49388449	        -12.40251587	
          1.87000000	        -44.34577705	         16.86370047	         11.28790885	         -7.82036939	         85.49388449	        -12.40251587	
          1.88000000	        -30.62585626	         16.86370047	         11.28790885	         -7.82036939	         85.49388449	        -12.40251587	
          1.89000000	        -16.90593547	         16.86370047	         11.28790885	         -7.82036939	         85.49388449	        -12.40251587	
          1.90000000	        -44.34577705	         -7.65248351	        -30.88730313	         -0.36668095	         85.49388449	        -12.40251587	
          1.91000000	        -30.62585626	         -7.65248351	        -30.88730313	         -0.36668095	         85.49388449	        -12.40251587	
          1.92000000	        -16.90593547	         -7.65248351	        -30.88730313	         -0.36668095	         85.49388449	        -12.40251587	
          1.93000000	        -44.34577705	          4.60560848	        -30.88730313	         -0.36668095	         85.49388449	        -12.40251587	
          1.94000000	        -30.62585626	          4.60560848	        -30.88730313	         -0.36668095	         85.49388449	        -12.40251587	
          1.95000000	        -16.90593547	          4.60560848	        -30.88730313	         -0.36668095	         85.49388449	        -12.40251587	
          1.96000000	        -44.34577705	         16.86370047	        -30.88730313	         -0.36668095	         85.49388449	        -12.40251587	
          1.97000000	        -30.62585626	         16.86370047	        -30.88730313	         -0.36668095	         85.49388449	        -12.40251587	
          1.98000000	        -16.90593547	         16.86370047	        -30.88730313	         -0.36668095	         85.49388449	        -12.40251587	
          1.99000000	        -44.34577705	         -7.65248351	         -9.79969714	         -0.36668095	         85.49388449	        -12.40251587	
          2.00000000	        -30.62585626	         -7.65248351	         -9.79969714	         -0.36668095	         85.49388449	        -12.40251587	
          2.01000000	        -16.90593547	         -7.65248351	         -9.79969714	         -0.36668095	         85.49388449	        -12.40251587	
          2.02000000	        -44.34577705	          4.60560848	         -9.79969714	         -0.36668095	         85.49388449	        -12.40251587	
          2.03000000	        -30.62585626	          4.60560848	         -9.79969714	         -0.36668095	         85.49388449	        -12.40251587	
          2.04000000	        -16.90593547	          4.60560848	         -9.79969714	         -0.36668095	         85.49388449	        -12.40251587	
          2.05000000	        -44.34577705	         16.86370047	         -9.79969714	         -0.36668095	         85.49388449	        -12.40251587	
          2.06000000	        -30.62585626	         16.86370047	         -9.79969714	         -0.36668095	         85.49388449	        -12.40251587	
          2.07000000	        -16.90593547	         16.86370047	         -9.79969714	         -0.36668095	         85.49388449	        -12.40251587	
          2.08000000	        -44.34577705	         -7.65248351	         11.28790885	         -0.36668095	         85.49388449	        -12.40251587	
          2.09000000	        -30.62585626	         -7.65248351	         11.28790885	         -0.36668095	         85.49388449	        -12.40251587	
          2.10000000	        -16.90593547	         -7.65248351	         11.28790885	         -0.36668095	         85.49388449	        -12.40251587	
          2.11000000	        -44.34577705	          4.60560848	         11.28790885	         -0.36668095	         85.49388449	        -12.40251587	
          2.12000000	        -30.62585626	          4.60560848	         11.28790885	         -0.36668095	         85.49388449	        -12.40251587	
          2.13000000	        -16.90593547	          4.60560848	         11.28790885	         -0.36668095	         85.49388449	        -12.40251587	
          2.14000000	        -44.34577705	         16.86370047	         11.28790885	         -0.36668095	         85.49388449	        -12.40251587	
          2.15000000	        -30.62585626	         16.86370047	         11.28790885	         -0.36668095	         85.49388449	        -12.40251587	
          2.16000000	        -16.90593547	         16.86370047	         11.28790885	         -0.36668095	         85.49388449	        -12.40251587	
          2.17000000	        -44.34577705	         -7.65248351	        -30.88730313	          7.08700750	         85.49388449	        -12.40251587	
          2.18000000	        -30.62585626	         -7.65248351	        -30.88730313	          7.08700750	         85.49388449	        -12.40251587	
          2.19000000	        -16.90593547	         -7.65248351	        -30.88730313	          7.08700750	         85.49388449	        -12.40251587	
          2.20000000	        -44.34577705	          4.60560848	        -30.88730313	          7.08700750	         85.49388449	        -12.40251587	
          2.21000000	        -30.62585626	          4.60560848	        -30.88730313	          7.08700750	         85.49388449	        -12.40251587	
          2.22000000	        -16.90593547	          4.60560848	        -30.88730313	          7.08700750	         85.49388449	        -12.40251587	
          2.23000000	        -44.34577705	         16.86370047	        -30.88730313	          7.08700750	         85.49388449	        -12.40251587	
          2.24000000	        -30.62585626	         16.86370047	        -30.88730313	          7.08700750	         85.49388449	        -12.40251587	
          2.25000000	        -16.90593547	         16.86370047	        -30.88730313	          7.08700750	         85.49388449	        -12.40251587	
          2.26000000	        -44.34577705	         -7.65248351	         -9.79969714	          7.08700750	         85.49388449	        -12.40251587	
          2.27000000	        -30.62585626	         -7.65248351	         -9.79969714	          7.08700750	         85.49388449	        -12.40251587	
          2.28000000	        -16.90593547	         -7.65248351	         -9.79969714	          7.08700750	         85.49388449	        -12.40251587	
          2.29000000	        -44.34577705	          4.60560848	         -9.79969714	          7.08700750	         85.49388449	        -12.40251587	
